<?xml version="1.0" encoding="UTF-8"?>
<svg version="1.1" xmlns="http://www.w3.org/2000/svg" width="48" height="48">
<path d="M0 0 C15.84 0 31.68 0 48 0 C48 15.84 48 31.68 48 48 C32.16 48 16.32 48 0 48 C0 32.16 0 16.32 0 0 Z " fill="#9355BC" transform="translate(0,0)"/>
<path d="M0 0 C7.59 0 15.18 0 23 0 C23.33 0.99 23.66 1.98 24 3 C21.525 2.505 21.525 2.505 19 2 C19.99 3.485 19.99 3.485 21 5 C21 5.99 21 6.98 21 8 C19.68 7.67 18.36 7.34 17 7 C17 7.66 17 8.32 17 9 C19.31 9.66 21.62 10.32 24 11 C24.33 12.32 24.66 13.64 25 15 C23.68 14.67 22.36 14.34 21 14 C21 13.34 21 12.68 21 12 C20.01 11.67 19.02 11.34 18 11 C17.67 11.66 17.34 12.32 17 13 C17.66 13 18.32 13 19 13 C19.20496094 13.68707031 19.40992187 14.37414063 19.62109375 15.08203125 C19.89050781 15.98308594 20.15992187 16.88414063 20.4375 17.8125 C20.70433594 18.70582031 20.97117187 19.59914063 21.24609375 20.51953125 C21.80387873 22.35473055 22.39344575 24.18033726 23 26 C22.01 26.33 21.02 26.66 20 27 C19.566875 25.6078125 19.566875 25.6078125 19.125 24.1875 C18.1125 20.90208333 18.1125 20.90208333 16 18 C15.61500109 16.34450469 15.27206865 14.6777567 15 13 C13.02 15.97 13.02 15.97 11 19 C12.32 19 13.64 19 15 19 C16.639243 22.09634789 17.10780951 23.52955852 16.3125 27 C15 30 15 30 13.375 32.6875 C11.7444623 34.98136704 11.7444623 34.98136704 12 38 C11.01 38.495 11.01 38.495 10 39 C15.68731595 43.93926778 15.68731595 43.93926778 22.875 44.8125 C26.67177983 44.21039872 29.70802699 43.03788805 33 41 C33.66 40.01 34.32 39.02 35 38 C34.34 38 33.68 38 33 38 C33.33 36.68 33.66 35.36 34 34 C34.66 34 35.32 34 36 34 C35.505 29.545 35.505 29.545 35 25 C35.99 25.99 36.98 26.98 38 28 C38 28.99 38 29.98 38 31 C38.66 31 39.32 31 40 31 C40.495 33.97 40.495 33.97 41 37 C43.44697666 32.63799813 44.50269348 28.97306516 45 24 C45.33 24 45.66 24 46 24 C46 28 46 32 46 36 C46.66 36.66 47.32 37.32 48 38 C48 41.3 48 44.6 48 48 C32.16 48 16.32 48 0 48 C0 32.16 0 16.32 0 0 Z " fill="#7B5372" transform="translate(0,0)"/>
<path d="M0 0 C3.875 1.75 3.875 1.75 5 4 C5.845625 4.495 6.69125 4.99 7.5625 5.5 C8.366875 5.995 9.17125 6.49 10 7 C10 7.66 10 8.32 10 9 C10.99 9 11.98 9 13 9 C13 13.62 13 18.24 13 23 C14.98 22.67 16.96 22.34 19 22 C19 22.66 19 23.32 19 24 C18.34 24.33 17.68 24.66 17 25 C16.67 25.99 16.34 26.98 16 28 C16.66 28 17.32 28 18 28 C16.59811585 31.52325382 15.26051081 32.77543494 11.8125 34.3125 C7.47530779 36.07100902 4.5783575 36.38214566 0 35 C-3.66195958 32.92719269 -5.66024277 31.50963584 -8 28 C-7.01 28 -6.02 28 -5 28 C-5.33 27.01 -5.66 26.02 -6 25 C-5.04060332 23.30963442 -4.03357147 21.64605826 -3 20 C-1.27889849 15.86935638 -0.72799072 13.32483156 -2 9 C-3.32 9 -4.64 9 -6 9 C-4.62845496 6.04590299 -3.01136276 3.55991624 -1 1 C-0.87625 2.134375 -0.7525 3.26875 -0.625 4.4375 C-0.315625 6.2009375 -0.315625 6.2009375 0 8 C0.66 8.33 1.32 8.66 2 9 C2.59355614 11.64860427 2.74209269 14.29197322 3 17 C3.66 16.34 4.32 15.68 5 15 C4.2575 13.4221875 4.2575 13.4221875 3.5 11.8125 C2.17220212 8.74547391 1.69284994 6.37865064 2 3 C1.34 3 0.68 3 0 3 C0 2.01 0 1.02 0 0 Z " fill="#F7E9D6" transform="translate(17,10)"/>
<path d="M0 0 C5.61 0 11.22 0 17 0 C17.33 0.99 17.66 1.98 18 3 C15.525 2.505 15.525 2.505 13 2 C13.99 3.485 13.99 3.485 15 5 C15 5.99 15 6.98 15 8 C13.68 7.67 12.36 7.34 11 7 C11 7.66 11 8.32 11 9 C13.31 9.66 15.62 10.32 18 11 C18.33 12.32 18.66 13.64 19 15 C17.68 14.67 16.36 14.34 15 14 C15 13.34 15 12.68 15 12 C14.01 11.67 13.02 11.34 12 11 C11.67 11.66 11.34 12.32 11 13 C11.66 13 12.32 13 13 13 C13.20496094 13.68707031 13.40992187 14.37414063 13.62109375 15.08203125 C13.89050781 15.98308594 14.15992187 16.88414063 14.4375 17.8125 C14.70433594 18.70582031 14.97117187 19.59914063 15.24609375 20.51953125 C15.80387873 22.35473055 16.39344575 24.18033726 17 26 C16.01 26.33 15.02 26.66 14 27 C13.566875 25.6078125 13.566875 25.6078125 13.125 24.1875 C12.1125 20.90208333 12.1125 20.90208333 10 18 C9.61500109 16.34450469 9.27206865 14.6777567 9 13 C7.02 15.97 7.02 15.97 5 19 C6.32 19 7.64 19 9 19 C10.76062164 22.32561865 11.10784228 23.59173995 10.125 27.3125 C9.75375 28.199375 9.3825 29.08625 9 30 C8.01 29.34 7.02 28.68 6 28 C5.67 28.66 5.34 29.32 5 30 C4.34 30 3.68 30 3 30 C2.67 28.68 2.34 27.36 2 26 C1.34 26.99 0.68 27.98 0 29 C-0.79953138 25.71303767 -1.09658936 24.28976808 0 21 C0.66 21 1.32 21 2 21 C2.33 19.35 2.66 17.7 3 16 C2.01 16 1.02 16 0 16 C0 16.66 0 17.32 0 18 C-0.99 18 -1.98 18 -3 18 C-3 17.01 -3 16.02 -3 15 C-1.68 15 -0.36 15 1 15 C0.67 13.35 0.34 11.7 0 10 C1.32 9.67 2.64 9.34 4 9 C3.67 8.01 3.34 7.02 3 6 C2.01 6 1.02 6 0 6 C0 4.02 0 2.04 0 0 Z " fill="#5B3E5B" transform="translate(6,0)"/>
<path d="M0 0 C1.98 0 3.96 0 6 0 C6.33 1.98 6.66 3.96 7 6 C8.32 5.67 9.64 5.34 11 5 C10.6875 6.9375 10.6875 6.9375 10 9 C9.01 9.33 8.02 9.66 7 10 C7 11.65 7 13.3 7 15 C5.68 15 4.36 15 3 15 C3 15.99 3 16.98 3 18 C3.99 18 4.98 18 6 18 C6 17.34 6 16.68 6 16 C6.99 15.67 7.98 15.34 9 15 C9.33 15.66 9.66 16.32 10 17 C9.34 17 8.68 17 8 17 C8 18.32 8 19.64 8 21 C7.34 21 6.68 21 6 21 C6 24.3 6 27.6 6 31 C4.68 31.33 3.36 31.66 2 32 C-0.19629783 28.45856475 -0.23275752 25.60332753 -0.1953125 21.484375 C-0.18886719 20.23398437 -0.18242188 18.98359375 -0.17578125 17.6953125 C-0.15902344 16.39335937 -0.14226563 15.09140625 -0.125 13.75 C-0.11597656 12.43257812 -0.10695312 11.11515625 -0.09765625 9.7578125 C-0.07408533 6.50502538 -0.04118022 3.25260411 0 0 Z " fill="#9DC6CD" transform="translate(0,0)"/>
<path d="M0 0 C0 7.92 0 15.84 0 24 C-0.99 24 -1.98 24 -3 24 C-4 22 -4 22 -4 19 C-4.7115625 20.2375 -4.7115625 20.2375 -5.4375 21.5 C-6.2109375 22.7375 -6.2109375 22.7375 -7 24 C-7.33 24 -7.66 24 -8 24 C-8.19916016 22.67935547 -8.19916016 22.67935547 -8.40234375 21.33203125 C-8.57894531 20.17058594 -8.75554688 19.00914063 -8.9375 17.8125 C-9.11152344 16.66394531 -9.28554688 15.51539062 -9.46484375 14.33203125 C-9.91379313 11.53674788 -10.42082162 8.77066414 -11 6 C-9.68 6 -8.36 6 -7 6 C-7.33 5.34 -7.66 4.68 -8 4 C-9.32 4 -10.64 4 -12 4 C-12 3.34 -12 2.68 -12 2 C-7.45641575 -1.71747802 -6.43816204 -0.91973743 0 0 Z " fill="#98C8CE" transform="translate(48,14)"/>
<path d="M0 0 C4.23443737 -0.35286978 5.73002899 0.4236592 9 3 C10.03125 3.309375 11.0625 3.61875 12.125 3.9375 C15 5 15 5 16.375 7.125 C16.58125 7.74375 16.7875 8.3625 17 9 C16.34 9 15.68 9 15 9 C15 8.34 15 7.68 15 7 C12.47014472 7.32386813 12.47014472 7.32386813 10 9 C8.92998438 11.94119871 8.42656082 14.90584243 8 18 C5.0625 16.6875 5.0625 16.6875 2 15 C1.67 14.01 1.34 13.02 1 12 C-2.50294871 10.28432339 -2.50294871 10.28432339 -6 9 C-6 8.34 -6 7.68 -6 7 C-4.68 7.33 -3.36 7.66 -2 8 C-2.66 6.02 -3.32 4.04 -4 2 C-2.35 2.33 -0.7 2.66 1 3 C0.67 2.01 0.34 1.02 0 0 Z " fill="#A0DED7" transform="translate(23,0)"/>
<path d="M0 0 C6.6 0 13.2 0 20 0 C20 4.62 20 9.24 20 14 C18.35 14 16.7 14 15 14 C14.566875 12.88625 14.13375 11.7725 13.6875 10.625 C12.30088881 6.82487666 12.30088881 6.82487666 9 5 C7.824375 4.690625 6.64875 4.38125 5.4375 4.0625 C2 3 2 3 0 0 Z " fill="#928ADA" transform="translate(28,0)"/>
<path d="M0 0 C3.875 1.75 3.875 1.75 5 4 C5.845625 4.495 6.69125 4.99 7.5625 5.5 C8.366875 5.995 9.17125 6.49 10 7 C10 7.66 10 8.32 10 9 C10.99 9 11.98 9 13 9 C13 11.64 13 14.28 13 17 C11.02 17.66 9.04 18.32 7 19 C6.15488176 17.27656245 5.32436646 15.54595947 4.5 13.8125 C4.0359375 12.84957031 3.571875 11.88664062 3.09375 10.89453125 C2.00407079 8.01077307 1.77722476 6.04645139 2 3 C1.34 3 0.68 3 0 3 C0 2.01 0 1.02 0 0 Z " fill="#C0ECE9" transform="translate(17,10)"/>
<path d="M0 0 C1.98 0 3.96 0 6 0 C6.33 1.98 6.66 3.96 7 6 C8.32 5.67 9.64 5.34 11 5 C10.6875 6.9375 10.6875 6.9375 10 9 C9.01 9.33 8.02 9.66 7 10 C7 11.65 7 13.3 7 15 C6.01 15 5.02 15 4 15 C4.33 13.02 4.66 11.04 5 9 C3.35 10.65 1.7 12.3 0 14 C0 9.38 0 4.76 0 0 Z " fill="#ADDEDC" transform="translate(0,0)"/>
<path d="M0 0 C1.76062164 3.32561865 2.10784228 4.59173995 1.125 8.3125 C0.75375 9.199375 0.3825 10.08625 0 11 C-0.99 10.34 -1.98 9.68 -3 9 C-3.33 9.66 -3.66 10.32 -4 11 C-4.66 11 -5.32 11 -6 11 C-6.33 9.68 -6.66 8.36 -7 7 C-7.66 7.99 -8.32 8.98 -9 10 C-9.79953138 6.71303767 -10.09658936 5.28976808 -9 2 C-5.99208089 -0.04108797 -3.57804656 -0.19878036 0 0 Z " fill="#745870" transform="translate(15,19)"/>
<path d="M0 0 C2.48307071 1.68494084 2.93875261 2.76057838 3.6875 5.6875 C3.790625 6.450625 3.89375 7.21375 4 8 C3.01 8.495 3.01 8.495 2 9 C1.34 7.68 0.68 6.36 0 5 C0.061875 5.78375 0.12375 6.5675 0.1875 7.375 C0.125625 8.24125 0.06375 9.1075 0 10 C-0.99 10.66 -1.98 11.32 -3 12 C-4.32 11.67 -5.64 11.34 -7 11 C-7 7.7 -7 4.4 -7 1 C-4.45132831 -0.27433584 -2.82594567 -0.27570202 0 0 Z " fill="#4B2C3B" transform="translate(36,22)"/>
<path d="M0 0 C-0.33 2.31 -0.66 4.62 -1 7 C-1.639375 6.814375 -2.27875 6.62875 -2.9375 6.4375 C-3.9584375 6.2209375 -3.9584375 6.2209375 -5 6 C-6.94090826 7.94090826 -6.39919435 11.47293902 -6.5625 14.0625 C-6.64628906 15.35285156 -6.73007812 16.64320312 -6.81640625 17.97265625 C-6.87699219 18.97167969 -6.93757813 19.97070312 -7 21 C-8.8133922 17.79989612 -9.52213974 14.86716157 -10.125 11.25 C-10.37636719 9.77273437 -10.37636719 9.77273437 -10.6328125 8.265625 C-10.75398438 7.51796875 -10.87515625 6.7703125 -11 6 C-9.68 6 -8.36 6 -7 6 C-7.33 5.34 -7.66 4.68 -8 4 C-9.32 4 -10.64 4 -12 4 C-12 3.34 -12 2.68 -12 2 C-7.86180432 -1.38579646 -5.08886459 -1.09759825 0 0 Z " fill="#A3E3DA" transform="translate(48,14)"/>
<path d="M0 0 C0.99 1.485 0.99 1.485 2 3 C4.89472816 7.23075653 8.02676412 9.46798807 12.390625 11.984375 C12.92171875 12.31953125 13.4528125 12.6546875 14 13 C14 13.33 14 13.66 14 14 C9.38 14 4.76 14 0 14 C0 9.38 0 4.76 0 0 Z " fill="#AFA2CF" transform="translate(0,34)"/>
<path d="M0 0 C0.90105469 0.00902344 1.80210938 0.01804688 2.73046875 0.02734375 C3.41753906 0.03894531 4.10460938 0.05054688 4.8125 0.0625 C5.1425 1.0525 5.4725 2.0425 5.8125 3.0625 C4.1625 2.7325 2.5125 2.4025 0.8125 2.0625 C1.8025 3.5475 1.8025 3.5475 2.8125 5.0625 C2.8125 6.0525 2.8125 7.0425 2.8125 8.0625 C0.1725 8.0625 -2.4675 8.0625 -5.1875 8.0625 C-5.5175 6.7425 -5.8475 5.4225 -6.1875 4.0625 C-6.8475 4.0625 -7.5075 4.0625 -8.1875 4.0625 C-8.1875 3.0725 -8.1875 2.0825 -8.1875 1.0625 C-5.17259443 0.05753148 -3.14568308 -0.04085303 0 0 Z " fill="#745F8B" transform="translate(18.1875,-0.0625)"/>
<path d="M0 0 C2 2 2 2 2 6 C2.66 6 3.32 6 4 6 C4.33 5.01 4.66 4.02 5 3 C5.66 3.33 6.32 3.66 7 4 C6.855625 4.53625 6.71125 5.0725 6.5625 5.625 C5.90546252 8.39915827 5.44780052 11.18525388 5 14 C0.71193127 13.52354792 -1.26647487 12.34097516 -4 9 C-4 8.34 -4 7.68 -4 7 C-3.01 7 -2.02 7 -1 7 C-0.67 4.69 -0.34 2.38 0 0 Z " fill="#AC7290" transform="translate(7,24)"/>
<path d="M0 0 C1.134375 0.020625 2.26875 0.04125 3.4375 0.0625 C4.08203125 1.828125 4.08203125 1.828125 4.4375 4.0625 C3.51171875 5.984375 3.51171875 5.984375 2.125 7.8125 C1.45017578 8.73289062 1.45017578 8.73289062 0.76171875 9.671875 C0.32472656 10.13078125 -0.11226562 10.5896875 -0.5625 11.0625 C-1.2225 11.0625 -1.8825 11.0625 -2.5625 11.0625 C-2.2325 9.7425 -1.9025 8.4225 -1.5625 7.0625 C-2.5525 7.0625 -3.5425 7.0625 -4.5625 7.0625 C-4.5625 7.7225 -4.5625 8.3825 -4.5625 9.0625 C-5.5525 9.0625 -6.5425 9.0625 -7.5625 9.0625 C-7.5625 8.0725 -7.5625 7.0825 -7.5625 6.0625 C-6.2425 6.0625 -4.9225 6.0625 -3.5625 6.0625 C-3.8409375 4.8559375 -3.8409375 4.8559375 -4.125 3.625 C-4.269375 2.779375 -4.41375 1.93375 -4.5625 1.0625 C-3.5625 0.0625 -3.5625 0.0625 0 0 Z " fill="#8B5F7E" transform="translate(10.5625,8.9375)"/>
<path d="M0 0 C6.6 0 13.2 0 20 0 C20 1.98 20 3.96 20 6 C19.0925 5.360625 18.185 4.72125 17.25 4.0625 C14.60778619 2.38571047 13.0101501 1.46310002 10 1 C10.33 2.65 10.66 4.3 11 6 C9.53775201 5.57576756 8.08026588 5.13509755 6.625 4.6875 C5.81289063 4.44386719 5.00078125 4.20023437 4.1640625 3.94921875 C2 3 2 3 0 0 Z " fill="#685679" transform="translate(28,0)"/>
<path d="M0 0 C0.33 0 0.66 0 1 0 C1 4 1 8 1 12 C1.66 12.66 2.32 13.32 3 14 C3.125 17.125 3.125 17.125 3 20 C1.68 19.67 0.36 19.34 -1 19 C-2.74938349 14.04341344 -3.24688588 11.73028606 -1 7 C-0.6186926 4.67402489 -0.27539746 2.34087842 0 0 Z " fill="#40546C" transform="translate(45,24)"/>
<path d="M0 0 C1.98 0.495 1.98 0.495 4 1 C4 1.66 4 2.32 4 3 C5.32 2.67 6.64 2.34 8 2 C8.33 2.99 8.66 3.98 9 5 C8.01 5.33 7.02 5.66 6 6 C5.26676204 8.01508358 5.26676204 8.01508358 5 10 C4.67 9.01 4.34 8.02 4 7 C2.35 7 0.7 7 -1 7 C-0.67 4.69 -0.34 2.38 0 0 Z " fill="#8F6A85" transform="translate(32,15)"/>
<path d="M0 0 C4.75 0.875 4.75 0.875 7 2 C7 3.32 7 4.64 7 6 C4.03 6 1.06 6 -2 6 C-2.33 5.01 -2.66 4.02 -3 3 C-2.34 3 -1.68 3 -1 3 C-0.67 2.01 -0.34 1.02 0 0 Z " fill="#BCC0DF" transform="translate(41,42)"/>
<path d="M0 0 C1.36125 0.37125 1.36125 0.37125 2.75 0.75 C3.08 1.74 3.41 2.73 3.75 3.75 C2.1 5.07 0.45 6.39 -1.25 7.75 C-1.86875 7.275625 -2.4875 6.80125 -3.125 6.3125 C-5.15705546 4.72582559 -5.15705546 4.72582559 -7.25 3.75 C-4.05 -0.31153846 -4.05 -0.31153846 0 0 Z " fill="#3F556D" transform="translate(39.25,38.25)"/>
<path d="M0 0 C2.75 2.375 2.75 2.375 5 5 C5 5.33 5 5.66 5 6 C1.7 6 -1.6 6 -5 6 C-4.67 4.35 -4.34 2.7 -4 1 C-2.3125 0.1875 -2.3125 0.1875 0 0 Z " fill="#6D3B79" transform="translate(34,42)"/>
<path d="M0 0 C0.66 0 1.32 0 2 0 C2 0.99 2 1.98 2 3 C2.66 3 3.32 3 4 3 C4.20496094 3.68707031 4.40992188 4.37414062 4.62109375 5.08203125 C4.89050781 5.98308594 5.15992188 6.88414063 5.4375 7.8125 C5.83775391 9.15248047 5.83775391 9.15248047 6.24609375 10.51953125 C6.80387873 12.35473055 7.39344575 14.18033726 8 16 C7.01 16.33 6.02 16.66 5 17 C4.71125 16.071875 4.4225 15.14375 4.125 14.1875 C3.1125 10.90208333 3.1125 10.90208333 1 8 C0.46083854 5.3397977 0.26629902 2.70737337 0 0 Z " fill="#929397" transform="translate(15,10)"/>
<path d="M0 0 C1.216875 0.185625 2.43375 0.37125 3.6875 0.5625 C7.02977939 0.98993182 9.71968417 0.92258883 13 0 C13 1.32 13 2.64 13 4 C8.71 4 4.42 4 0 4 C0 2.68 0 1.36 0 0 Z " fill="#AB6D86" transform="translate(16,44)"/>
<path d="M0 0 C0.66 0.66 1.32 1.32 2 2 C1.54545455 7.45454545 1.54545455 7.45454545 -1 10 C-1.33 9.01 -1.66 8.02 -2 7 C-2.66 7.99 -3.32 8.98 -4 10 C-4.79953138 6.71303767 -5.09658936 5.28976808 -4 2 C-1.9375 0.8125 -1.9375 0.8125 0 0 Z " fill="#3D2638" transform="translate(10,19)"/>
<path d="M0 0 C0.99 0 1.98 0 3 0 C4.00099189 3.5034716 4.70539953 6.58920093 3 10 C1.68 9.67 0.36 9.34 -1 9 C-0.67 6.03 -0.34 3.06 0 0 Z " fill="#6A475A" transform="translate(30,24)"/>
<path d="M0 0 C2.2477975 2.05233685 3.0022242 3.00667261 4 6 C2.68 5.67 1.36 5.34 0 5 C-0.33 7.64 -0.66 10.28 -1 13 C-1.66 13 -2.32 13 -3 13 C-2.67 11.68 -2.34 10.36 -2 9 C-2.99 9 -3.98 9 -5 9 C-5.66 7.68 -6.32 6.36 -7 5 C-4.525 5.99 -4.525 5.99 -2 7 C-1.34 4.69 -0.68 2.38 0 0 Z " fill="#6E586A" transform="translate(32,10)"/>
<path d="M0 0 C0.33 0.66 0.66 1.32 1 2 C1.99 2 2.98 2 4 2 C4 4.64 4 7.28 4 10 C2.02 10.66 0.04 11.32 -2 12 C-2 11.01 -2 10.02 -2 9 C-1.67 9 -1.34 9 -1 9 C-0.67 6.03 -0.34 3.06 0 0 Z " fill="#94A5AE" transform="translate(26,17)"/>
<path d="M0 0 C0.33 0 0.66 0 1 0 C3.48063781 10.37357631 3.48063781 10.37357631 2 16 C1.10869587 13.3260876 0.52268466 10.76276177 0 8 C-1.32 8 -2.64 8 -4 8 C-2.66666667 5.33333333 -1.33333333 2.66666667 0 0 Z " fill="#DFBAB6" transform="translate(15,11)"/>
<path d="M0 0 C0.99 1.485 0.99 1.485 2 3 C4.86818296 6.99496912 7.81088434 9.4294063 12 12 C11.01 12.495 11.01 12.495 10 13 C7.6171875 12.00390625 7.6171875 12.00390625 4.875 10.5625 C3.96492187 10.08941406 3.05484375 9.61632813 2.1171875 9.12890625 C1.41851562 8.75636719 0.71984375 8.38382813 0 8 C0 5.36 0 2.72 0 0 Z " fill="#BEBAD3" transform="translate(0,34)"/>
<path d="M0 0 C6.64615385 1.47692308 6.64615385 1.47692308 8.4375 4.125 C8.7159375 5.053125 8.7159375 5.053125 9 6 C8.34 6 7.68 6 7 6 C7 5.34 7 4.68 7 4 C4.47636012 4.62533375 4.47636012 4.62533375 2 6 C1.10613836 8.54775306 1.10613836 8.54775306 1 11 C0.67 11 0.34 11 0 11 C0 7.37 0 3.74 0 0 Z " fill="#95D3CE" transform="translate(31,3)"/>
<path d="M0 0 C2.30569339 3.45854008 2.29761619 4.97937508 2.3125 9.0625 C2.32925781 10.12597656 2.34601562 11.18945312 2.36328125 12.28515625 C2.24339844 13.18105469 2.12351563 14.07695313 2 15 C1.01 15.66 0.02 16.32 -1 17 C-0.67 11.39 -0.34 5.78 0 0 Z " fill="#CCF7F1" transform="translate(41,21)"/>
<path d="M0 0 C3.2910841 3.60957611 4.54663921 6.12637153 5 11 C4.01 11 3.02 11 2 11 C0.19769832 7.17010894 -0.19622241 4.21878192 0 0 Z " fill="#606DA7" transform="translate(0,28)"/>
<path d="M0 0 C1.32 0.33 2.64 0.66 4 1 C4 5.62 4 10.24 4 15 C2.22413995 11.4482799 1.51372154 9.08232923 0.875 5.25 C0.70742188 4.26515625 0.53984375 3.2803125 0.3671875 2.265625 C0.24601562 1.51796875 0.12484375 0.7703125 0 0 Z " fill="#9AC1D2" transform="translate(37,20)"/>
<path d="M0 0 C2.97 0.495 2.97 0.495 6 1 C5.67 2.65 5.34 4.3 5 6 C3.02 5.34 1.04 4.68 -1 4 C-0.67 2.68 -0.34 1.36 0 0 Z " fill="#DBA39D" transform="translate(19,36)"/>
<path d="M0 0 C-0.33 0.66 -0.66 1.32 -1 2 C-1.99 2 -2.98 2 -4 2 C-3.67 2.99 -3.34 3.98 -3 5 C-4.32 5.33 -5.64 5.66 -7 6 C-7 5.34 -7 4.68 -7 4 C-7.66 4 -8.32 4 -9 4 C-9 3.01 -9 2.02 -9 1 C-5.8035914 -0.06546953 -3.34252724 -0.07427838 0 0 Z " fill="#C89CB4" transform="translate(19,0)"/>
<path d="M0 0 C-0.33 1.65 -0.66 3.3 -1 5 C-2.32 5 -3.64 5 -5 5 C-5.33 3.68 -5.66 2.36 -6 1 C-3 0 -3 0 0 0 Z " fill="#EA74A8" transform="translate(14,9)"/>
<path d="M0 0 C1.65 0 3.3 0 5 0 C3.7508258 3.45925163 2.32472205 6.14693203 0 9 C0 6.03 0 3.06 0 0 Z " fill="#8BB3B4" transform="translate(0,0)"/>
<path d="M0 0 C0.66 0 1.32 0 2 0 C3.4606285 2.64738916 4 3.89448334 4 7 C2.35 7 0.7 7 -1 7 C-0.67 4.69 -0.34 2.38 0 0 Z " fill="#E3B4B1" transform="translate(32,15)"/>
<path d="M0 0 C0.66 0.33 1.32 0.66 2 1 C2 1.66 2 2.32 2 3 C-2.58823529 7 -2.58823529 7 -4 7 C-4 5.35 -4 3.7 -4 2 C-2.125 0.9375 -2.125 0.9375 0 0 Z " fill="#4297B5" transform="translate(41,39)"/>
<path d="M0 0 C0.33 0.66 0.66 1.32 1 2 C0.01 2.495 0.01 2.495 -1 3 C-1.33 3.99 -1.66 4.98 -2 6 C-1.34 6 -0.68 6 0 6 C-0.33 6.66 -0.66 7.32 -1 8 C-2.65 6.35 -4.3 4.7 -6 3 C-5.67 2.34 -5.34 1.68 -5 1 C-2.4375 0.375 -2.4375 0.375 0 0 Z " fill="#E0B7AF" transform="translate(35,32)"/>
<path d="M0 0 C0.99 0.33 1.98 0.66 3 1 C4.17755913 3.94389782 4.03348696 4.89953913 3 8 C1.68 7.34 0.36 6.68 -1 6 C-0.34 5.67 0.32 5.34 1 5 C0.67 3.35 0.34 1.7 0 0 Z " fill="#3B3557" transform="translate(4,34)"/>
<path d="M0 0 C0.5534764 2.07553648 1 3.84365964 1 6 C-0.65 5.67 -2.3 5.34 -4 5 C-4.33 3.68 -4.66 2.36 -5 1 C-3.68 1.33 -2.36 1.66 -1 2 C-0.67 1.34 -0.34 0.68 0 0 Z " fill="#BEAAAC" transform="translate(11,32)"/>
<path d="M0 0 C1.485 0.99 1.485 0.99 3 2 C2.74438677 4.3431213 2.40729228 6.67843403 2 9 C1.01 9.495 1.01 9.495 0 10 C-0.74926071 6.33694766 -1.2380014 3.57644848 0 0 Z " fill="#3D2536" transform="translate(14,20)"/>
<path d="M0 0 C0.99 1.485 0.99 1.485 2 3 C3.32 2.67 4.64 2.34 6 2 C5.6875 3.9375 5.6875 3.9375 5 6 C4.01 6.33 3.02 6.66 2 7 C0 5 0 5 -0.125 2.375 C-0.08375 1.59125 -0.0425 0.8075 0 0 Z " fill="#A16D90" transform="translate(32,5)"/>
<path d="M0 0 C0.66 0 1.32 0 2 0 C2.33 2.97 2.66 5.94 3 9 C0.9375 7.3125 0.9375 7.3125 -1 5 C-0.75 2.25 -0.75 2.25 0 0 Z " fill="#9EC5D2" transform="translate(23,6)"/>
<path d="M0 0 C3.90625 3.90625 3.90625 3.90625 4 7 C2.0625 9.25 2.0625 9.25 0 11 C0 7.37 0 3.74 0 0 Z " fill="#B98394" transform="translate(35,25)"/>
<path d="M0 0 C2.50037734 2.17424117 3.43628586 3.73045798 4 7 C3.01 7.66 2.02 8.32 1 9 C0.01 8.67 -0.98 8.34 -2 8 C-1.01 7.01 -0.02 6.02 1 5 C0.34 4.34 -0.32 3.68 -1 3 C-0.67 2.01 -0.34 1.02 0 0 Z " fill="#513F71" transform="translate(39,6)"/>
<path d="M0 0 C2.31 0 4.62 0 7 0 C6.01 0.33 5.02 0.66 4 1 C4 1.66 4 2.32 4 3 C3.34 3 2.68 3 2 3 C2.33 3.99 2.66 4.98 3 6 C2.01 6 1.02 6 0 6 C0 4.02 0 2.04 0 0 Z " fill="#896EA5" transform="translate(6,0)"/>
<path d="M0 0 C0.556875 0.391875 1.11375 0.78375 1.6875 1.1875 C0.6975 1.5175 -0.2925 1.8475 -1.3125 2.1875 C-1.9725 2.8475 -2.6325 3.5075 -3.3125 4.1875 C-4.6325 4.1875 -5.9525 4.1875 -7.3125 4.1875 C-7.3125 3.5275 -7.3125 2.8675 -7.3125 2.1875 C-3.09973404 -1.08909574 -3.09973404 -1.08909574 0 0 Z " fill="#A2D0CD" transform="translate(43.3125,13.8125)"/>
<path d="M0 0 C3.465 1.485 3.465 1.485 7 3 C7 3.99 7 4.98 7 6 C5.68 5.67 4.36 5.34 3 5 C3 4.34 3 3.68 3 3 C2.01 2.67 1.02 2.34 0 2 C0 1.34 0 0.68 0 0 Z " fill="#846080" transform="translate(18,9)"/>
<path d="M0 0 C2 2 2 2 2.125 5.125 C2.08375 6.07375 2.0425 7.0225 2 8 C1.34 8 0.68 8 0 8 C-0.38063221 5.6739143 -0.71269945 3.33944736 -1 1 C-0.67 0.67 -0.34 0.34 0 0 Z " fill="#5B6096" transform="translate(46,36)"/>
<path d="M0 0 C0.33 0 0.66 0 1 0 C1 2.97 1 5.94 1 9 C0.01 9 -0.98 9 -2 9 C-2.33 8.34 -2.66 7.68 -3 7 C-2.06421005 4.64018187 -1.06652192 2.30368736 0 0 Z " fill="#C4E9E5" transform="translate(47,29)"/>
<path d="M0 0 C2.875 0.25 2.875 0.25 6 1 C7.375 3.0625 7.375 3.0625 8 5 C5.36 4.01 2.72 3.02 0 2 C0 1.34 0 0.68 0 0 Z " fill="#DA7594" transform="translate(38,1)"/>
<path d="M0 0 C4.875 1.75 4.875 1.75 6 4 C3.625 4.1875 3.625 4.1875 1 4 C0.34 3.01 -0.32 2.02 -1 1 C-0.67 0.67 -0.34 0.34 0 0 Z " fill="#E7A6DB" transform="translate(2,44)"/>
<path d="M0 0 C2.2477975 2.05233685 3.0022242 3.00667261 4 6 C2.68 5.67 1.36 5.34 0 5 C-0.33 5.99 -0.66 6.98 -1 8 C-0.67 5.36 -0.34 2.72 0 0 Z " fill="#653E4F" transform="translate(32,10)"/>
</svg>
